<?xml version="1.0" encoding="UTF-8"?>
<svg width="251px" height="303px" viewBox="0 0 251 303" version="1.1" xmlns="http://www.w3.org/2000/svg" xmlns:xlink="http://www.w3.org/1999/xlink">
    <!-- Generator: Sketch 41.2 (35397) - http://www.bohemiancoding.com/sketch -->
    <title>logo</title>
    <desc>Created with Sketch.</desc>
    <defs></defs>
    <g id="web" stroke="none" stroke-width="1" fill="none" fill-rule="evenodd">
        <g id="Desktop-HD" transform="translate(-589.000000, -161.000000)">
            <g id="logo" transform="translate(589.000000, 158.000000)">
                <path d="M49.8794762,83.3571429 L49.8794762,94.9285714 L46.9866191,94.9285714 L46.9866191,83.3571429 C46.9866191,80.9657023 46.1380561,78.9214371 44.4409048,77.2242857 C42.7437534,75.5271344 40.6994882,74.6785714 38.3080476,74.6785714 C35.9166071,74.6785714 33.8723418,75.5271344 32.1751905,77.2242857 C30.4780391,78.9214371 29.6294762,80.9657023 29.6294762,83.3571429 L29.6294762,135.428571 C29.6294762,137.820012 30.4780391,139.864277 32.1751905,141.561429 C33.8723418,143.25858 35.9166071,144.107143 38.3080476,144.107143 C40.6994882,144.107143 42.7437534,143.25858 44.4409048,141.561429 C46.1380561,139.864277 46.9866191,137.820012 46.9866191,135.428571 L46.9866191,123.857143 L49.8794762,123.857143 L49.8794762,135.428571 C49.8794762,138.630016 48.7512732,141.358917 46.4948333,143.615357 C44.2383935,145.871797 41.5094922,147 38.3080476,147 C35.1066031,147 32.3777018,145.871797 30.1212619,143.615357 C27.8648221,141.358917 26.7366191,138.630016 26.7366191,135.428571 L26.7366191,83.3571429 C26.7366191,80.1556983 27.8648221,77.426797 30.1212619,75.1703571 C32.3777018,72.9139173 35.1066031,71.7857143 38.3080476,71.7857143 C41.5094922,71.7857143 44.2383935,72.9139173 46.4948333,75.1703571 C48.7512732,77.426797 49.8794762,80.1556983 49.8794762,83.3571429 Z M90.6591143,126.75 L82.3855429,75.3728571 L74.1119714,126.75 L90.6591143,126.75 Z M84.7576857,71.7857143 L96.9076857,147 L93.9569714,147 L91.1798286,129.642857 L73.5912572,129.642857 L70.8141143,147 L67.8634,147 L80.0134,71.7857143 L84.7576857,71.7857143 Z M136.588038,83.3571429 C136.588038,80.9657023 135.739475,78.9214371 134.042324,77.2242857 C132.345172,75.5271344 130.300907,74.6785714 127.909467,74.6785714 L119.230895,74.6785714 L119.230895,126.75 L127.909467,126.75 C130.300907,126.75 132.345172,125.901437 134.042324,124.204286 C135.739475,122.507134 136.588038,120.462869 136.588038,118.071429 L136.588038,83.3571429 Z M131.438752,129.122143 C130.320175,129.469287 129.143759,129.642857 127.909467,129.642857 L119.230895,129.642857 L119.230895,147 L116.338038,147 L116.338038,71.7857143 L127.909467,71.7857143 C131.110911,71.7857143 133.839813,72.9139173 136.096252,75.1703571 C138.352692,77.426797 139.480895,80.1556983 139.480895,83.3571429 L139.480895,118.071429 C139.480895,121.272873 138.362335,123.992132 136.125181,126.229286 C135.508035,126.846432 134.871613,127.367141 134.215895,127.791429 L139.712324,147 L136.530181,147 L131.438752,129.122143 Z M180.260533,83.3571429 C180.260533,80.9657023 179.41197,78.9214371 177.714819,77.2242857 C176.017668,75.5271344 173.973402,74.6785714 171.581962,74.6785714 L162.90339,74.6785714 L162.90339,126.75 L171.581962,126.75 C173.973402,126.75 176.017668,125.901437 177.714819,124.204286 C179.41197,122.507134 180.260533,120.462869 180.260533,118.071429 L180.260533,83.3571429 Z M171.581962,71.7857143 C174.783406,71.7857143 177.512308,72.9139173 179.768748,75.1703571 C182.025187,77.426797 183.15339,80.1556983 183.15339,83.3571429 L183.15339,118.071429 C183.15339,121.272873 182.025187,124.001774 179.768748,126.258214 C177.512308,128.514654 174.783406,129.642857 171.581962,129.642857 L162.90339,129.642857 L162.90339,147 L160.010533,147 L160.010533,71.7857143 L171.581962,71.7857143 Z M203.683029,71.7857143 L221.040171,71.7857143 L221.040171,74.6785714 L206.575886,74.6785714 L206.575886,106.5 L218.147314,106.5 L218.147314,109.392857 L206.575886,109.392857 L206.575886,144.107143 L221.040171,144.107143 L221.040171,147 L203.683029,147 L203.683029,71.7857143 Z M5.01608573,175.207857 L5.01608573,244 L2.12322859,244 L2.12322859,168.785714 L6.75180002,168.785714 L25.3239429,237.751429 L25.3239429,168.785714 L28.2168,168.785714 L28.2168,244 L23.5303714,244 L5.01608573,175.207857 Z M48.283581,180.357143 C48.283581,177.155698 49.411784,174.426797 51.6682238,172.170357 C53.9246637,169.913917 56.653565,168.785714 59.8550095,168.785714 C63.0564541,168.785714 65.7853554,169.913917 68.0417953,172.170357 C70.2982351,174.426797 71.4264381,177.155698 71.4264381,180.357143 L71.4264381,232.428571 C71.4264381,235.630016 70.2982351,238.358917 68.0417953,240.615357 C65.7853554,242.871797 63.0564541,244 59.8550095,244 C56.653565,244 53.9246637,242.871797 51.6682238,240.615357 C49.411784,238.358917 48.283581,235.630016 48.283581,232.428571 L48.283581,180.357143 Z M68.533581,180.357143 C68.533581,177.965702 67.685018,175.921437 65.9878667,174.224286 C64.2907153,172.527134 62.2464501,171.678571 59.8550095,171.678571 C57.463569,171.678571 55.4193037,172.527134 53.7221524,174.224286 C52.0250011,175.921437 51.1764381,177.965702 51.1764381,180.357143 L51.1764381,232.428571 C51.1764381,234.820012 52.0250011,236.864277 53.7221524,238.561429 C55.4193037,240.25858 57.463569,241.107143 59.8550095,241.107143 C62.2464501,241.107143 64.2907153,240.25858 65.9878667,238.561429 C67.685018,236.864277 68.533581,234.820012 68.533581,232.428571 L68.533581,180.357143 Z M115.098933,180.357143 L115.098933,191.928571 L112.206076,191.928571 L112.206076,180.357143 C112.206076,177.965702 111.357513,175.921437 109.660362,174.224286 C107.963211,172.527134 105.918945,171.678571 103.527505,171.678571 C101.136064,171.678571 99.091799,172.527134 97.3946476,174.224286 C95.6974963,175.921437 94.8489333,177.965702 94.8489333,180.357143 L94.8489333,232.428571 C94.8489333,234.820012 95.6974963,236.864277 97.3946476,238.561429 C99.091799,240.25858 101.136064,241.107143 103.527505,241.107143 C105.918945,241.107143 107.963211,240.25858 109.660362,238.561429 C111.357513,236.864277 112.206076,234.820012 112.206076,232.428571 L112.206076,220.857143 L115.098933,220.857143 L115.098933,232.428571 C115.098933,235.630016 113.97073,238.358917 111.71429,240.615357 C109.457851,242.871797 106.728949,244 103.527505,244 C100.32606,244 97.5971589,242.871797 95.3407191,240.615357 C93.0842792,238.358917 91.9560762,235.630016 91.9560762,232.428571 L91.9560762,180.357143 C91.9560762,177.155698 93.0842792,174.426797 95.3407191,172.170357 C97.5971589,169.913917 100.32606,168.785714 103.527505,168.785714 C106.728949,168.785714 109.457851,169.913917 111.71429,172.170357 C113.97073,174.426797 115.098933,177.155698 115.098933,180.357143 Z M150.845,168.785714 L150.845,171.678571 L142.166429,171.678571 L142.166429,244 L139.273571,244 L139.273571,171.678571 L130.595,171.678571 L130.595,168.785714 L150.845,168.785714 Z M167.671781,168.785714 L185.028924,168.785714 L185.028924,171.678571 L170.564638,171.678571 L170.564638,203.5 L182.136067,203.5 L182.136067,206.392857 L170.564638,206.392857 L170.564638,241.107143 L185.028924,241.107143 L185.028924,244 L167.671781,244 L167.671781,168.785714 Z M208.046419,175.092143 L208.046419,244 L205.153562,244 L205.153562,168.785714 L210.302848,168.785714 L223.957133,239.660714 L237.553562,168.785714 L242.760705,168.785714 L242.760705,244 L239.867848,244 L239.867848,174.860714 L226.560705,244 L221.295705,244 L208.046419,175.092143 Z" id="CARPE-NOCTEM" fill="#92714B"></path>
                <path d="M129.739114,13.9903226 C129.555397,13.9290323 129.310442,13.9903226 129.187964,14.1129032 C127.963185,15.583871 126.126017,16.3806452 124.22761,16.3806452 C120.614513,16.3806452 117.675044,13.4387097 117.675044,9.82258065 C117.675044,7.92258065 118.47115,6.14516129 119.940885,4.85806452 C120.124601,4.73548387 120.124601,4.49032258 120.063362,4.30645161 C120.002123,4.12258065 119.818407,4 119.573451,4 C114.674336,4.49032258 111,8.53548387 111,13.5 C111,18.7709677 115.286725,23 120.492035,23 C125.39115,23 129.494158,19.3225806 129.98407,14.4193548 C130.045309,14.2354839 129.922831,14.0516129 129.739114,13.9903226 Z" id="Shape" fill="#92714A" transform="translate(120.500000, 13.500000) rotate(43.000000) translate(-120.500000, -13.500000) "></path>
                <path d="M2.07380008,300.4327 C2.82580386,301.400905 3.68119533,301.885 4.64000015,301.885 C5.19460294,301.885 5.65049839,301.779251 6.00770019,301.56775 C6.36490199,301.356249 6.5435002,301.039002 6.5435002,300.616 C6.51530006,300.239998 6.30380217,299.958001 5.90900019,299.77 L3.18770011,299.1073 C2.35109591,298.844099 1.67900261,298.418753 1.17140006,297.83125 C0.663797507,297.243747 0.410000038,296.597503 0.410000038,295.8925 C0.410000038,294.717494 0.821245937,293.777503 1.64375007,293.0725 C2.46625421,292.367496 3.42269467,292.015 4.51310015,292.015 C6.18630856,292.015 7.56809478,292.625994 8.65850026,293.848 L6.74090021,295.3849 C6.18629742,294.783297 5.48600441,294.4825 4.64000015,294.4825 C4.07599732,294.4825 3.64125165,294.599999 3.33575012,294.835 C3.03024858,295.070001 2.8775001,295.351998 2.8775001,295.681 C2.8775001,296.151002 3.19709692,296.522298 3.83630013,296.7949 L6.5717002,297.4435 C8.19790838,298.054503 9.01100027,299.111992 9.01100027,300.616 C9.01100027,301.612405 8.63500402,302.484246 7.88300024,303.23155 C7.13099646,303.978854 6.05000724,304.3525 4.64000015,304.3525 C2.72239051,304.3525 1.19020579,303.506508 0.0434000282,301.8145 L2.07380008,300.4327 Z M22.4644151,300.1225 L20.6314151,296.2309 L18.798415,300.1225 L22.4644151,300.1225 Z M23.6206152,302.59 L17.642215,302.59 L16.979515,304 L14.2300149,304 L19.7008151,292.3675 L21.5338151,292.3675 L27.0046152,304 L24.2833152,304 L23.6206152,302.59 Z M36.05883,297.1474 L36.05883,304 L33.5913299,304 L33.5913299,292.3675 L35.62173,292.3675 L40.6413301,299.2201 L40.6413301,292.3675 L43.1088302,292.3675 L43.1088302,304 L41.0784301,304 L36.05883,297.1474 Z M69.3952599,292.3675 L69.3952599,294.835 L64.1077597,294.835 L64.1077597,296.95 L68.3377598,296.95 L68.3377598,299.4175 L64.1077597,299.4175 L64.1077597,304 L61.6402597,304 L61.6402597,292.3675 L69.3952599,292.3675 Z M78.6609746,294.835 L78.6609746,299.065 L80.4234747,299.065 C81.0062776,299.065 81.5044726,298.858202 81.9180747,298.4446 C82.3316768,298.030998 82.5384747,297.532803 82.5384747,296.95 C82.5384747,296.367197 82.3316768,295.869002 81.9180747,295.4554 C81.5044726,295.041798 81.0062776,294.835 80.4234747,294.835 L78.6609746,294.835 Z M78.6609746,301.5325 L78.6609746,304 L76.1934745,304 L76.1934745,292.3675 L80.4234747,292.3675 C81.692481,292.3675 82.7734703,292.813995 83.6664747,293.707 C84.5594792,294.600004 85.0059748,295.680993 85.0059748,296.95 C85.0059748,298.219006 84.5594792,299.299995 83.6664747,300.193 C83.4878738,300.371601 83.2951758,300.536099 83.0883747,300.6865 L85.0059748,304 L82.1577747,304 L80.7336747,301.5184 C80.6302741,301.5278 80.5268752,301.5325 80.4234747,301.5325 L78.6609746,301.5325 Z M98.7554896,300.1225 L96.9224896,296.2309 L95.0894895,300.1225 L98.7554896,300.1225 Z M99.9116897,302.59 L93.9332895,302.59 L93.2705895,304 L90.5210894,304 L95.9918896,292.3675 L97.8248896,292.3675 L103.29569,304 L100.57439,304 L99.9116897,302.59 Z M112.349904,297.1474 L112.349904,304 L109.882404,304 L109.882404,292.3675 L111.912804,292.3675 L116.932405,299.2201 L116.932405,292.3675 L119.399905,292.3675 L119.399905,304 L117.369505,304 L112.349904,297.1474 Z M137.08332,302.5477 C135.880114,303.750906 134.427828,304.3525 132.72642,304.3525 C131.015611,304.3525 129.558625,303.750906 128.355419,302.5477 C127.152213,301.344494 126.550619,299.887508 126.550619,298.1767 C126.550619,296.475291 127.152213,295.023006 128.355419,293.8198 C129.558625,292.616594 131.015611,292.015 132.72642,292.015 C134.427828,292.015 135.880114,292.616594 137.08332,293.8198 L135.33492,295.5682 C134.611116,294.844396 133.741625,294.4825 132.72642,294.4825 C131.701814,294.4825 130.827623,294.844396 130.103819,295.5682 C129.380016,296.292003 129.018119,297.161495 129.018119,298.1767 C129.018119,299.201305 129.380016,300.075496 130.103819,300.7993 C130.827623,301.523104 131.701814,301.885 132.72642,301.885 C133.741625,301.885 134.611116,301.523104 135.33492,300.7993 L137.08332,302.5477 Z M146.391334,292.3675 L146.391334,304 L143.923834,304 L143.923834,292.3675 L146.391334,292.3675 Z M155.910849,300.4327 C156.662853,301.400905 157.518244,301.885 158.477049,301.885 C159.031652,301.885 159.487547,301.779251 159.844749,301.56775 C160.201951,301.356249 160.380549,301.039002 160.380549,300.616 C160.352349,300.239998 160.140851,299.958001 159.746049,299.77 L157.024749,299.1073 C156.188145,298.844099 155.516052,298.418753 155.008449,297.83125 C154.500847,297.243747 154.247049,296.597503 154.247049,295.8925 C154.247049,294.717494 154.658295,293.777503 155.480799,293.0725 C156.303303,292.367496 157.259744,292.015 158.350149,292.015 C160.023358,292.015 161.405144,292.625994 162.495549,293.848 L160.577949,295.3849 C160.023346,294.783297 159.323053,294.4825 158.477049,294.4825 C157.913046,294.4825 157.478301,294.599999 157.172799,294.835 C156.867298,295.070001 156.714549,295.351998 156.714549,295.681 C156.714549,296.151002 157.034146,296.522298 157.673349,296.7949 L160.408749,297.4435 C162.034957,298.054503 162.848049,299.111992 162.848049,300.616 C162.848049,301.612405 162.472053,302.484246 161.720049,303.23155 C160.968046,303.978854 159.887056,304.3525 158.477049,304.3525 C156.55944,304.3525 155.027255,303.506508 153.880449,301.8145 L155.910849,300.4327 Z M180.037964,302.5477 C178.834758,303.750906 177.382473,304.3525 175.681064,304.3525 C173.970256,304.3525 172.51327,303.750906 171.310064,302.5477 C170.106858,301.344494 169.505264,299.887508 169.505264,298.1767 C169.505264,296.475291 170.106858,295.023006 171.310064,293.8198 C172.51327,292.616594 173.970256,292.015 175.681064,292.015 C177.382473,292.015 178.834758,292.616594 180.037964,293.8198 L178.289564,295.5682 C177.565761,294.844396 176.696269,294.4825 175.681064,294.4825 C174.656459,294.4825 173.782268,294.844396 173.058464,295.5682 C172.33466,296.292003 171.972764,297.161495 171.972764,298.1767 C171.972764,299.201305 172.33466,300.075496 173.058464,300.7993 C173.782268,301.523104 174.656459,301.885 175.681064,301.885 C176.696269,301.885 177.565761,301.523104 178.289564,300.7993 L180.037964,302.5477 Z M195.648679,293.8198 C196.851885,295.023006 197.453479,296.475291 197.453479,298.1767 C197.453479,299.887508 196.851885,301.344494 195.648679,302.5477 C194.445473,303.750906 192.993188,304.3525 191.291779,304.3525 C189.58097,304.3525 188.123985,303.750906 186.920779,302.5477 C185.717573,301.344494 185.115979,299.887508 185.115979,298.1767 C185.115979,296.475291 185.717573,295.023006 186.920779,293.8198 C188.123985,292.616594 189.58097,292.015 191.291779,292.015 C192.993188,292.015 194.445473,292.616594 195.648679,293.8198 Z M191.291779,294.4825 C190.267174,294.4825 189.392983,294.844396 188.669179,295.5682 C187.945375,296.292003 187.583479,297.161495 187.583479,298.1767 C187.583479,299.201305 187.945375,300.075496 188.669179,300.7993 C189.392983,301.523104 190.267174,301.885 191.291779,301.885 C192.306984,301.885 193.176476,301.523104 193.900279,300.7993 C194.624083,300.075496 194.985979,299.201305 194.985979,298.1767 C194.985979,297.161495 194.624083,296.292003 193.900279,295.5682 C193.176476,294.844396 192.306984,294.4825 191.291779,294.4825 Z M202.009794,305.7766 L202.898094,302.2375 L205.464294,302.2375 L203.983794,305.7766 L202.009794,305.7766 Z M233.104324,302.5477 C231.901118,303.750906 230.448832,304.3525 228.747424,304.3525 C227.036615,304.3525 225.579629,303.750906 224.376423,302.5477 C223.173217,301.344494 222.571623,299.887508 222.571623,298.1767 C222.571623,296.475291 223.173217,295.023006 224.376423,293.8198 C225.579629,292.616594 227.036615,292.015 228.747424,292.015 C230.448832,292.015 231.901118,292.616594 233.104324,293.8198 L231.355924,295.5682 C230.63212,294.844396 229.762629,294.4825 228.747424,294.4825 C227.722818,294.4825 226.848627,294.844396 226.124823,295.5682 C225.40102,296.292003 225.039123,297.161495 225.039123,298.1767 C225.039123,299.201305 225.40102,300.075496 226.124823,300.7993 C226.848627,301.523104 227.722818,301.885 228.747424,301.885 C229.762629,301.885 230.63212,301.523104 231.355924,300.7993 L233.104324,302.5477 Z M246.191139,300.1225 L244.358138,296.2309 L242.525138,300.1225 L246.191139,300.1225 Z M247.347339,302.59 L241.368938,302.59 L240.706238,304 L237.956738,304 L243.427538,292.3675 L245.260539,292.3675 L250.731339,304 L248.010039,304 L247.347339,302.59 Z" id="SAN-FRANCISCO,-CA" fill="#92714B"></path>
            </g>
        </g>
    </g>
</svg>